<mxfile host="app.diagrams.net" modified="2023-07-25T12:43:43.433Z" agent="Mozilla/5.0 (Windows NT 10.0; Win64; x64) AppleWebKit/537.36 (KHTML, like Gecko) Chrome/114.0.0.0 Safari/537.36" etag="u_KTk3gmon3TF3v-QdLH" version="21.6.5" type="github" pages="4">
  <diagram name="Filter by manufacturer" id="b0GberjzZ939CXaLA34X">
    <mxGraphModel dx="1050" dy="573" grid="1" gridSize="10" guides="1" tooltips="1" connect="1" arrows="1" fold="1" page="1" pageScale="1" pageWidth="827" pageHeight="1169" math="0" shadow="0">
      <root>
        <mxCell id="0" />
        <mxCell id="1" parent="0" />
        <mxCell id="7AaVf39T8sH8r62OQnQh-11" style="edgeStyle=orthogonalEdgeStyle;rounded=0;orthogonalLoop=1;jettySize=auto;html=1;exitX=0.5;exitY=1;exitDx=0;exitDy=0;entryX=0.5;entryY=0;entryDx=0;entryDy=0;" edge="1" parent="1" source="7AaVf39T8sH8r62OQnQh-2" target="7AaVf39T8sH8r62OQnQh-4">
          <mxGeometry relative="1" as="geometry" />
        </mxCell>
        <mxCell id="7AaVf39T8sH8r62OQnQh-2" value="Start" style="ellipse;whiteSpace=wrap;html=1;" vertex="1" parent="1">
          <mxGeometry x="354" y="30" width="120" height="90" as="geometry" />
        </mxCell>
        <mxCell id="7AaVf39T8sH8r62OQnQh-3" value="Stop" style="ellipse;whiteSpace=wrap;html=1;" vertex="1" parent="1">
          <mxGeometry x="354" y="600" width="120" height="80" as="geometry" />
        </mxCell>
        <mxCell id="7AaVf39T8sH8r62OQnQh-12" style="edgeStyle=orthogonalEdgeStyle;rounded=0;orthogonalLoop=1;jettySize=auto;html=1;exitX=0.5;exitY=1;exitDx=0;exitDy=0;entryX=0.5;entryY=0;entryDx=0;entryDy=0;" edge="1" parent="1" source="7AaVf39T8sH8r62OQnQh-4" target="7AaVf39T8sH8r62OQnQh-5">
          <mxGeometry relative="1" as="geometry" />
        </mxCell>
        <mxCell id="7AaVf39T8sH8r62OQnQh-4" value="Search" style="rounded=0;whiteSpace=wrap;html=1;" vertex="1" parent="1">
          <mxGeometry x="354" y="160" width="120" height="60" as="geometry" />
        </mxCell>
        <mxCell id="7AaVf39T8sH8r62OQnQh-13" style="edgeStyle=orthogonalEdgeStyle;rounded=0;orthogonalLoop=1;jettySize=auto;html=1;exitX=0.5;exitY=1;exitDx=0;exitDy=0;entryX=0.5;entryY=0;entryDx=0;entryDy=0;" edge="1" parent="1" source="7AaVf39T8sH8r62OQnQh-5" target="7AaVf39T8sH8r62OQnQh-6">
          <mxGeometry relative="1" as="geometry" />
        </mxCell>
        <mxCell id="7AaVf39T8sH8r62OQnQh-5" value="Create a statement &quot;&lt;br&gt;Select * from table where&lt;br&gt;manufacturer=Search&quot;" style="shape=parallelogram;perimeter=parallelogramPerimeter;whiteSpace=wrap;html=1;fixedSize=1;" vertex="1" parent="1">
          <mxGeometry x="336" y="270" width="156" height="90" as="geometry" />
        </mxCell>
        <mxCell id="7AaVf39T8sH8r62OQnQh-7" style="edgeStyle=orthogonalEdgeStyle;rounded=0;orthogonalLoop=1;jettySize=auto;html=1;entryX=0.5;entryY=0;entryDx=0;entryDy=0;" edge="1" parent="1" source="7AaVf39T8sH8r62OQnQh-6" target="7AaVf39T8sH8r62OQnQh-9">
          <mxGeometry relative="1" as="geometry">
            <mxPoint x="630" y="530" as="targetPoint" />
          </mxGeometry>
        </mxCell>
        <mxCell id="7AaVf39T8sH8r62OQnQh-8" style="edgeStyle=orthogonalEdgeStyle;rounded=0;orthogonalLoop=1;jettySize=auto;html=1;exitX=0;exitY=0.5;exitDx=0;exitDy=0;entryX=0.5;entryY=0;entryDx=0;entryDy=0;" edge="1" parent="1" source="7AaVf39T8sH8r62OQnQh-6" target="7AaVf39T8sH8r62OQnQh-10">
          <mxGeometry relative="1" as="geometry">
            <mxPoint x="230" y="540" as="targetPoint" />
          </mxGeometry>
        </mxCell>
        <mxCell id="7AaVf39T8sH8r62OQnQh-6" value="There is a value&lt;br&gt;in the table" style="rhombus;whiteSpace=wrap;html=1;" vertex="1" parent="1">
          <mxGeometry x="354" y="440" width="120" height="80" as="geometry" />
        </mxCell>
        <mxCell id="7AaVf39T8sH8r62OQnQh-14" style="edgeStyle=orthogonalEdgeStyle;rounded=0;orthogonalLoop=1;jettySize=auto;html=1;exitX=0.5;exitY=1;exitDx=0;exitDy=0;entryX=1;entryY=0.5;entryDx=0;entryDy=0;" edge="1" parent="1" source="7AaVf39T8sH8r62OQnQh-9" target="7AaVf39T8sH8r62OQnQh-3">
          <mxGeometry relative="1" as="geometry" />
        </mxCell>
        <mxCell id="7AaVf39T8sH8r62OQnQh-9" value="Show the data from&lt;br&gt;the searched manufacturer&lt;br&gt;to the table" style="shape=parallelogram;perimeter=parallelogramPerimeter;whiteSpace=wrap;html=1;fixedSize=1;" vertex="1" parent="1">
          <mxGeometry x="560" y="515" width="180" height="75" as="geometry" />
        </mxCell>
        <mxCell id="7AaVf39T8sH8r62OQnQh-15" style="edgeStyle=orthogonalEdgeStyle;rounded=0;orthogonalLoop=1;jettySize=auto;html=1;exitX=0;exitY=0.5;exitDx=0;exitDy=0;" edge="1" parent="1" source="7AaVf39T8sH8r62OQnQh-10">
          <mxGeometry relative="1" as="geometry">
            <mxPoint x="410" y="230" as="targetPoint" />
            <mxPoint x="10" y="330" as="sourcePoint" />
            <Array as="points">
              <mxPoint x="170" y="230" />
            </Array>
          </mxGeometry>
        </mxCell>
        <mxCell id="7AaVf39T8sH8r62OQnQh-10" value="Show no result" style="shape=parallelogram;perimeter=parallelogramPerimeter;whiteSpace=wrap;html=1;fixedSize=1;" vertex="1" parent="1">
          <mxGeometry x="160" y="530" width="120" height="60" as="geometry" />
        </mxCell>
        <mxCell id="7AaVf39T8sH8r62OQnQh-17" value="True" style="text;html=1;strokeColor=none;fillColor=none;align=center;verticalAlign=middle;whiteSpace=wrap;rounded=0;" vertex="1" parent="1">
          <mxGeometry x="474" y="440" width="60" height="30" as="geometry" />
        </mxCell>
        <mxCell id="7AaVf39T8sH8r62OQnQh-18" value="False" style="text;html=1;strokeColor=none;fillColor=none;align=center;verticalAlign=middle;whiteSpace=wrap;rounded=0;" vertex="1" parent="1">
          <mxGeometry x="294" y="440" width="60" height="30" as="geometry" />
        </mxCell>
      </root>
    </mxGraphModel>
  </diagram>
  <diagram id="K9-OZ3rQHB-3n7ECAeAO" name="Filter by price">
    <mxGraphModel dx="1050" dy="573" grid="1" gridSize="10" guides="1" tooltips="1" connect="1" arrows="1" fold="1" page="1" pageScale="1" pageWidth="827" pageHeight="1169" math="0" shadow="0">
      <root>
        <mxCell id="0" />
        <mxCell id="1" parent="0" />
      </root>
    </mxGraphModel>
  </diagram>
  <diagram id="mfEXxE6C-foX_zjAlTVi" name="Order by release date DESC&#39;">
    <mxGraphModel dx="1050" dy="573" grid="1" gridSize="10" guides="1" tooltips="1" connect="1" arrows="1" fold="1" page="1" pageScale="1" pageWidth="827" pageHeight="1169" math="0" shadow="0">
      <root>
        <mxCell id="0" />
        <mxCell id="1" parent="0" />
      </root>
    </mxGraphModel>
  </diagram>
  <diagram id="0Xkdcv7ftamiGfapWS_W" name="Order by price desc">
    <mxGraphModel dx="1050" dy="573" grid="1" gridSize="10" guides="1" tooltips="1" connect="1" arrows="1" fold="1" page="1" pageScale="1" pageWidth="827" pageHeight="1169" math="0" shadow="0">
      <root>
        <mxCell id="0" />
        <mxCell id="1" parent="0" />
      </root>
    </mxGraphModel>
  </diagram>
</mxfile>
